# xmcd
#
# Track frame offsets: 
#        150
#        59202
#        110890
#        126000
#        179342
#        230802
#        267677
#        319512
#
# Disc length: 4675 seconds
#
# Revision: 0
# Processed by: cddbd v1.5.2PL0 Copyright (c) Steve Scherf et al.
# Submitted via: ExactAudioCopy v0.95b4
#
DISCID=80124108
DTITLE=Trio Stradivari - Brahms Trios Op.18 and 36 (arranged from Stri
DTITLE=ng Sextet)
DYEAR=1995
DGENRE=Classical
TTITLE0=Trio in B flat Major Op.18 I Allegro ma non troppo
TTITLE1=II. Andante ma moderato
TTITLE2=III. Scherzo -Allegro molto-Trio-Animato
TTITLE3=IV. Rondo - Poco allegretto e grazioso
TTITLE4=Trio in G Major Op.36 I. Allegro non troppo
TTITLE5=II. Scherzo - Allegro non troppo - Presto gioioso
TTITLE6=III. Poco Adagio
TTITLE7=IV. Poco Allegro
EXTD=
EXTT0=
EXTT1=
EXTT2=
EXTT3=
EXTT4=
EXTT5=
EXTT6=
EXTT7=
PLAYORDER=
